<mxfile host="app.diagrams.net" modified="2022-02-21T11:37:21.502Z" agent="5.0 (Windows NT 10.0; Win64; x64) AppleWebKit/537.36 (KHTML, like Gecko) Chrome/98.0.4758.102 Safari/537.36" etag="0QpEe1i_BBtD96e_mvyA" version="16.5.3" type="github">
  <diagram id="EdzjTXUHs3BosPFrUyOJ" name="Page-1">
    <mxGraphModel dx="918" dy="1299" grid="1" gridSize="10" guides="1" tooltips="1" connect="1" arrows="1" fold="1" page="1" pageScale="1" pageWidth="827" pageHeight="1169" math="0" shadow="0">
      <root>
        <mxCell id="0" />
        <mxCell id="1" parent="0" />
        <mxCell id="wr2bGZW6vdPm8M9QXOde-1" value="" style="rounded=0;whiteSpace=wrap;html=1;" vertex="1" parent="1">
          <mxGeometry x="40" y="40" width="760" height="920" as="geometry" />
        </mxCell>
        <mxCell id="wr2bGZW6vdPm8M9QXOde-2" value="" style="rounded=0;whiteSpace=wrap;html=1;" vertex="1" parent="1">
          <mxGeometry x="260" y="80" width="500" height="830" as="geometry" />
        </mxCell>
        <mxCell id="wr2bGZW6vdPm8M9QXOde-3" value="nginx-backend1" style="rounded=0;whiteSpace=wrap;html=1;" vertex="1" parent="1">
          <mxGeometry x="540" y="130" width="120" height="60" as="geometry" />
        </mxCell>
        <mxCell id="wr2bGZW6vdPm8M9QXOde-4" value="nginx-backend2" style="rounded=0;whiteSpace=wrap;html=1;" vertex="1" parent="1">
          <mxGeometry x="540" y="280" width="120" height="60" as="geometry" />
        </mxCell>
        <mxCell id="wr2bGZW6vdPm8M9QXOde-5" value="nginx-backend3" style="rounded=0;whiteSpace=wrap;html=1;" vertex="1" parent="1">
          <mxGeometry x="540" y="430" width="120" height="60" as="geometry" />
        </mxCell>
        <mxCell id="wr2bGZW6vdPm8M9QXOde-6" value="nginx-backend4" style="rounded=0;whiteSpace=wrap;html=1;" vertex="1" parent="1">
          <mxGeometry x="540" y="584.5" width="120" height="60" as="geometry" />
        </mxCell>
        <mxCell id="wr2bGZW6vdPm8M9QXOde-7" value="Ubuntu" style="rounded=0;whiteSpace=wrap;html=1;" vertex="1" parent="1">
          <mxGeometry x="340" y="130" width="120" height="60" as="geometry" />
        </mxCell>
        <mxCell id="wr2bGZW6vdPm8M9QXOde-8" value="nginx-frontend" style="rounded=0;whiteSpace=wrap;html=1;" vertex="1" parent="1">
          <mxGeometry x="340" y="430" width="120" height="60" as="geometry" />
        </mxCell>
        <mxCell id="wr2bGZW6vdPm8M9QXOde-9" value="Docker DNS&lt;br&gt;127.0.0.11" style="rounded=0;whiteSpace=wrap;html=1;" vertex="1" parent="1">
          <mxGeometry x="340" y="280" width="120" height="60" as="geometry" />
        </mxCell>
        <mxCell id="wr2bGZW6vdPm8M9QXOde-10" value="" style="endArrow=classic;startArrow=classic;html=1;rounded=0;entryX=0.5;entryY=1;entryDx=0;entryDy=0;exitX=0.5;exitY=0;exitDx=0;exitDy=0;" edge="1" parent="1" source="wr2bGZW6vdPm8M9QXOde-9" target="wr2bGZW6vdPm8M9QXOde-7">
          <mxGeometry width="50" height="50" relative="1" as="geometry">
            <mxPoint x="380" y="590" as="sourcePoint" />
            <mxPoint x="430" y="540" as="targetPoint" />
          </mxGeometry>
        </mxCell>
        <mxCell id="wr2bGZW6vdPm8M9QXOde-11" value="" style="endArrow=classic;startArrow=classic;html=1;rounded=0;exitX=0.5;exitY=0;exitDx=0;exitDy=0;" edge="1" parent="1" source="wr2bGZW6vdPm8M9QXOde-8" target="wr2bGZW6vdPm8M9QXOde-9">
          <mxGeometry width="50" height="50" relative="1" as="geometry">
            <mxPoint x="210" y="289.9999999999998" as="sourcePoint" />
            <mxPoint x="210" y="199.99999999999977" as="targetPoint" />
          </mxGeometry>
        </mxCell>
        <mxCell id="wr2bGZW6vdPm8M9QXOde-12" value="" style="endArrow=classic;html=1;rounded=0;entryX=0;entryY=0.5;entryDx=0;entryDy=0;exitX=1;exitY=0.5;exitDx=0;exitDy=0;" edge="1" parent="1" source="wr2bGZW6vdPm8M9QXOde-8" target="wr2bGZW6vdPm8M9QXOde-3">
          <mxGeometry width="50" height="50" relative="1" as="geometry">
            <mxPoint x="280" y="610" as="sourcePoint" />
            <mxPoint x="330" y="560" as="targetPoint" />
          </mxGeometry>
        </mxCell>
        <mxCell id="wr2bGZW6vdPm8M9QXOde-13" value="" style="endArrow=classic;html=1;rounded=0;entryX=0;entryY=0.5;entryDx=0;entryDy=0;exitX=1;exitY=0.5;exitDx=0;exitDy=0;" edge="1" parent="1" source="wr2bGZW6vdPm8M9QXOde-8" target="wr2bGZW6vdPm8M9QXOde-4">
          <mxGeometry width="50" height="50" relative="1" as="geometry">
            <mxPoint x="360" y="469.9999999999998" as="sourcePoint" />
            <mxPoint x="550" y="169.99999999999977" as="targetPoint" />
          </mxGeometry>
        </mxCell>
        <mxCell id="wr2bGZW6vdPm8M9QXOde-14" value="" style="endArrow=classic;html=1;rounded=0;entryX=0;entryY=0.5;entryDx=0;entryDy=0;" edge="1" parent="1" source="wr2bGZW6vdPm8M9QXOde-8" target="wr2bGZW6vdPm8M9QXOde-5">
          <mxGeometry width="50" height="50" relative="1" as="geometry">
            <mxPoint x="360" y="469.9999999999998" as="sourcePoint" />
            <mxPoint x="550" y="319.9999999999998" as="targetPoint" />
          </mxGeometry>
        </mxCell>
        <mxCell id="wr2bGZW6vdPm8M9QXOde-15" value="" style="endArrow=classic;html=1;rounded=0;entryX=0;entryY=0.5;entryDx=0;entryDy=0;exitX=1;exitY=0.5;exitDx=0;exitDy=0;" edge="1" parent="1" source="wr2bGZW6vdPm8M9QXOde-8" target="wr2bGZW6vdPm8M9QXOde-6">
          <mxGeometry width="50" height="50" relative="1" as="geometry">
            <mxPoint x="360" y="469.9999999999998" as="sourcePoint" />
            <mxPoint x="550" y="469.9999999999998" as="targetPoint" />
          </mxGeometry>
        </mxCell>
        <mxCell id="wr2bGZW6vdPm8M9QXOde-19" value="/etc/hosts" style="rounded=0;whiteSpace=wrap;html=1;" vertex="1" parent="1">
          <mxGeometry x="70" y="220" width="120" height="60" as="geometry" />
        </mxCell>
        <mxCell id="wr2bGZW6vdPm8M9QXOde-20" value="bash" style="rounded=0;whiteSpace=wrap;html=1;" vertex="1" parent="1">
          <mxGeometry x="70" y="430" width="120" height="60" as="geometry" />
        </mxCell>
      </root>
    </mxGraphModel>
  </diagram>
</mxfile>
